<?xml version="1.0" encoding="UTF-8" standalone="no"?>
<!DOCTYPE svg PUBLIC "-//W3C//DTD SVG 1.1//EN" "http://www.w3.org/Graphics/SVG/1.1/DTD/svg11.dtd">
<svg version="1.1" xmlns="http://www.w3.org/2000/svg" xmlns:xlink="http://www.w3.org/1999/xlink" preserveAspectRatio="xMidYMid meet" viewBox="0 0 640 640" width="640" height="640"><defs><path d="M29.91 219.55C29.91 134.44 29.91 81.24 29.91 59.96C29.91 53.91 37.16 50.82 41.53 55C60.29 72.95 106.95 117.62 126.21 136.06C131.2 140.84 139.15 140.56 143.8 135.46C160.48 117.14 199.49 74.31 215.53 56.7C219.66 52.16 227.21 55.08 227.21 61.22C227.21 82.33 227.21 135.11 227.21 219.55" id="d4JJUduuTy"></path><path d="M306.49 217.75C282.53 217.75 267.56 217.75 261.57 217.75C244.08 217.75 229.91 203.57 229.91 186.09C229.91 159.09 229.91 111.78 229.91 85.29C229.91 66.4 245.23 51.08 264.12 51.08C272.59 51.08 261.48 51.08 269.37 51.08C289.87 51.08 306.49 67.7 306.49 88.2C306.49 95.55 306.49 80.78 306.49 88.2C306.49 108.5 290.03 124.95 269.73 124.95C264.42 124.95 251.15 124.95 229.91 124.95" id="b4TtJ6jhXt"></path><path d="M404.68 217.75L404.68 136.31C376.55 136.31 358.96 136.31 351.92 136.31C334.79 136.31 320.9 150.2 320.9 167.34C320.9 174.06 320.9 190.86 320.9 217.75L311.89 217.75L311.89 53.08" id="b2u3yKcArR"></path><path d="M499.28 136.31L410.99 136.31C410.99 162.5 410.99 178.86 410.99 185.41C410.99 200.78 423.45 213.24 438.83 213.24C451.82 213.24 455.31 213.24 466.39 213.24C487.04 213.24 503.78 196.5 503.78 175.85C503.78 159.48 503.78 118.56 503.78 53.08" id="g14glMeXZX"></path><path d="M632.61 142.62L516.4 142.62L516.4 59.38L632.61 59.38" id="amWAi7GBO"></path><path d="M627.21 213.24C587.37 213.24 562.48 213.24 552.52 213.24C532.57 213.24 516.4 197.07 516.4 177.12C516.4 172.09 516.4 159.5 516.4 139.37" id="a6EiJPCzA"></path></defs><g><g><g><g><use xlink:href="#d4JJUduuTy" opacity="1" fill-opacity="0" stroke="#de2a2a" stroke-width="12" stroke-opacity="1"></use></g></g><g><g><use xlink:href="#b4TtJ6jhXt" opacity="1" fill-opacity="0" stroke="#de2a2a" stroke-width="12" stroke-opacity="1"></use></g></g><g><g><use xlink:href="#b2u3yKcArR" opacity="1" fill-opacity="0" stroke="#de2a2a" stroke-width="12" stroke-opacity="1"></use></g></g><g><g><use xlink:href="#g14glMeXZX" opacity="1" fill-opacity="0" stroke="#de2a2a" stroke-width="12" stroke-opacity="1"></use></g></g><g><g><use xlink:href="#amWAi7GBO" opacity="1" fill-opacity="0" stroke="#de2a2a" stroke-width="12" stroke-opacity="1"></use></g></g><g><g><use xlink:href="#a6EiJPCzA" opacity="1" fill-opacity="0" stroke="#de2a2a" stroke-width="12" stroke-opacity="1"></use></g></g></g></g></svg>